<svg xmlns="http://www.w3.org/2000/svg" width="14" height="15" viewBox="0 0 14 15" fill="none">
  <path d="M6.0882 9.27198e-08C5.65411 -0.000102705 5.22425 0.0852736 4.82318 0.251343C4.42211 0.417412 4.05769 0.660951 3.75074 0.967896C3.44378 1.27484 3.20031 1.63922 3.03423 2.04028C2.86815 2.44135 2.78271 2.87121 2.7828 3.3053C2.78328 3.88521 2.93636 4.45477 3.22665 4.95679C3.51694 5.45881 3.93423 5.87559 4.4366 6.16528C3.16069 6.55195 2.037 7.37605 1.23624 8.51233C0.435473 9.6486 0.00141227 11.035 0 12.4608C0 12.6876 0.19352 12.871 0.4344 12.871H7.74642C7.49431 12.3971 7.33848 11.864 7.33848 11.2899C7.33849 9.50692 8.72064 8.06224 10.4697 7.92944C9.72186 7.08966 8.77961 6.47919 7.7398 6.16089C8.24111 5.87129 8.65755 5.45514 8.9474 4.95398C9.23726 4.45282 9.39037 3.88424 9.3914 3.3053C9.39158 2.42899 9.04369 1.58847 8.42424 0.968628C7.80479 0.348785 6.96451 0.000375964 6.0882 9.27198e-08ZM11.1775 8.69226C10.4289 8.69226 9.71103 8.98972 9.18171 9.51904C8.65239 10.0484 8.35502 10.7662 8.35502 11.5148C8.35502 12.2633 8.65239 12.9813 9.18171 13.5106C9.71103 14.0399 10.4289 14.3373 11.1775 14.3373C11.9261 14.3373 12.644 14.0399 13.1733 13.5106C13.7026 12.9813 14 12.2633 14 11.5148C14 10.7662 13.7026 10.0484 13.1733 9.51904C12.644 8.98972 11.9261 8.69226 11.1775 8.69226ZM11.1685 9.8147C11.2439 9.81352 11.3188 9.82746 11.3888 9.85571C11.4587 9.88397 11.5223 9.92601 11.5757 9.97925C11.6292 10.0325 11.6714 10.0958 11.6999 10.1656C11.7285 10.2355 11.7427 10.3103 11.7418 10.3857V10.9503H12.3063C12.3811 10.9493 12.4554 10.9631 12.5248 10.991C12.5942 11.0189 12.6573 11.0603 12.7106 11.1128C12.7639 11.1653 12.8062 11.2279 12.835 11.2969C12.8639 11.3659 12.8787 11.44 12.8787 11.5148C12.8787 11.5896 12.8639 11.6637 12.835 11.7327C12.8062 11.8017 12.7639 11.8642 12.7106 11.9167C12.6573 11.9693 12.5942 12.0107 12.5248 12.0386C12.4554 12.0665 12.3811 12.0804 12.3063 12.0793H11.7418V12.6438C11.7429 12.7186 11.729 12.7929 11.7011 12.8623C11.6732 12.9317 11.6318 12.9948 11.5793 13.0481C11.5268 13.1014 11.4642 13.1436 11.3952 13.1725C11.3262 13.2014 11.2521 13.2162 11.1773 13.2162C11.1025 13.2162 11.0285 13.2014 10.9595 13.1725C10.8905 13.1436 10.8279 13.1014 10.7754 13.0481C10.7228 12.9948 10.6814 12.9317 10.6535 12.8623C10.6256 12.7929 10.6118 12.7186 10.6128 12.6438V12.0793H10.0483C9.97354 12.0804 9.89928 12.0665 9.82988 12.0386C9.76048 12.0107 9.69731 11.9693 9.64406 11.9167C9.5908 11.8642 9.54851 11.8017 9.51964 11.7327C9.49078 11.6637 9.47591 11.5896 9.47591 11.5148C9.47591 11.44 9.49078 11.3659 9.51964 11.2969C9.54851 11.2279 9.5908 11.1653 9.64406 11.1128C9.69731 11.0603 9.76048 11.0189 9.82988 10.991C9.89928 10.9631 9.97354 10.9493 10.0483 10.9503H10.6128V10.3857C10.6111 10.2364 10.6686 10.0925 10.7727 9.98547C10.8769 9.87844 11.0192 9.81703 11.1685 9.8147Z" fill="black"/>
</svg>