<svg xmlns="http://www.w3.org/2000/svg" width="33" height="33" viewBox="0 0 33 33" fill="none">
  <path d="M32.5185 5.15288L27.8479 0.482321C27.2048 -0.160774 26.159 -0.160774 25.5159 0.482321L10.231 15.7737C10.0167 15.988 9.86725 16.2609 9.7958 16.5532L8.26926 22.8672C8.11336 23.9585 9.04877 24.8874 10.1336 24.7315L16.4476 23.205C16.7399 23.1335 17.0127 22.9841 17.2271 22.7698L32.512 7.48491C33.1616 6.84181 33.1616 5.79597 32.5185 5.15288Z" fill="#566CFF"/>
  <path d="M29.1341 15.5333L26.4968 18.1707C26.4318 18.2356 26.3994 18.3136 26.3994 18.4045V29.7009H3.29992V6.60146H14.5963C14.6807 6.60146 14.7652 6.56898 14.8301 6.50402L17.4675 3.86669C17.6754 3.65882 17.5259 3.30154 17.2336 3.30154H1.64996C0.740533 3.30154 0 4.04208 0 4.9515V31.3509C0 32.2603 0.740533 33.0008 1.64996 33.0008H28.0493C28.9587 33.0008 29.6993 32.2603 29.6993 31.3509V15.7672C29.6993 15.4749 29.342 15.3255 29.1341 15.5333Z" fill="#566CFF"/>
</svg>