<svg xmlns="http://www.w3.org/2000/svg" width="24" height="24" viewBox="0 0 24 24" fill="none">
<path fill-rule="evenodd" clip-rule="evenodd" d="M23.1868 0.8132C22.1025 -0.271067 20.3446 -0.271067 19.2603 0.8132L8.88833 11.1852C8.45429 11.6192 8.18559 12.1913 8.1287 12.8025L7.9694 14.5139C7.88852 15.3829 8.61715 16.1115 9.4861 16.0306L11.1975 15.8713C11.8087 15.8144 12.3808 15.5457 12.8149 15.1117L23.1868 4.73973C24.2711 3.65546 24.2711 1.8975 23.1868 0.8132ZM20.3551 1.90806C20.8347 1.42846 21.6123 1.42846 22.0919 1.90806C22.5715 2.38768 22.5715 3.16525 22.0919 3.64487L20.793 4.9438L19.0562 3.20699L20.3551 1.90806ZM17.9613 4.30188L19.6981 6.03866L11.72 14.0168C11.5413 14.1955 11.3057 14.3062 11.054 14.3296L9.90004 14.437C9.70693 14.455 9.54503 14.2931 9.56299 14.1L9.67039 12.946C9.69383 12.6943 9.80448 12.4587 9.98319 12.28L17.9613 4.30188Z" fill="#566CFF"/>
<path d="M12.0773 0.464539H11.3878C8.96563 0.464508 7.0531 0.464509 5.55762 0.665581C4.02101 0.872165 2.7864 1.30624 1.81405 2.27859C0.841698 3.25094 0.407626 4.48555 0.201042 6.02216C-3.00682e-05 7.51764 -3.0213e-05 9.43013 7.54485e-07 11.8523V12.6121C-3.0213e-05 15.0342 -3.00682e-05 16.9468 0.201042 18.4422C0.407626 19.9788 0.841698 21.2135 1.81405 22.1858C2.7864 23.1582 4.02101 23.5922 5.55762 23.7988C7.0531 23.9999 8.96563 23.9999 11.3878 23.9999H12.1476C14.5697 23.9999 16.4822 23.9999 17.9777 23.7988C19.5143 23.5922 20.7489 23.1582 21.7213 22.1858C22.6936 21.2135 23.1277 19.9788 23.3343 18.4422C23.5353 16.9468 23.5353 15.0342 23.5353 12.6121V11.9225C23.5353 11.4095 23.1194 10.9935 22.6063 10.9935C22.0932 10.9935 21.6773 11.4095 21.6773 11.9225V12.5419C21.6773 15.0498 21.6753 16.8373 21.4928 18.1947C21.3139 19.5252 20.977 20.3024 20.4074 20.872C19.8379 21.4416 19.0607 21.7785 17.7301 21.9574C16.3728 22.1398 14.5853 22.1418 12.0773 22.1418H11.458C8.95002 22.1418 7.16251 22.1398 5.8052 21.9574C4.47465 21.7785 3.69746 21.4416 3.12788 20.872C2.55829 20.3024 2.22139 19.5252 2.04249 18.1947C1.86003 16.8373 1.85805 15.0498 1.85805 12.5419V11.9225C1.85805 9.41456 1.86003 7.62705 2.04249 6.26974C2.22139 4.93919 2.55829 4.162 3.12788 3.59241C3.69746 3.02283 4.47465 2.68593 5.8052 2.50703C7.16251 2.32457 8.95002 2.32259 11.458 2.32259H12.0773C12.5904 2.32259 13.0064 1.90667 13.0064 1.39357C13.0064 0.880464 12.5904 0.464539 12.0773 0.464539Z" fill="#566CFF"/>
</svg>